<svg width="24" height="25" viewBox="0 0 24 25" fill="none" xmlns="http://www.w3.org/2000/svg">
<g id="UI icon/database/light">
<path id="Union" fill-rule="evenodd" clip-rule="evenodd" d="M18.9874 7.39314C18.9383 7.28569 18.6986 6.84272 17.5324 6.30964C16.2197 5.70952 14.2656 5.28564 12 5.28564C9.73441 5.28564 7.78033 5.70952 6.46756 6.30964C5.30145 6.84272 5.06172 7.28569 5.01259 7.39314C5.06446 7.49698 5.30835 7.88574 6.41373 8.35228C7.73109 8.90828 9.70059 9.28565 12 9.28565C14.2994 9.28565 16.2689 8.90828 17.5863 8.35228C18.6916 7.88575 18.9355 7.49698 18.9874 7.39314ZM12 11.2856C14.8273 11.2856 17.35 10.7636 19 9.8953V12.265C19 12.265 18.9985 12.2674 18.9965 12.2724C18.9719 12.3338 18.7958 12.773 17.5846 13.3087C16.2845 13.8837 14.3257 14.2856 12 14.2856C9.67429 14.2856 7.71551 13.8837 6.41542 13.3087C5.20421 12.773 5.0283 12.3335 5.00368 12.2721C5.0017 12.2671 5.00021 12.2647 5.00021 12.2647L5.00004 9.89532C6.65 10.7636 9.17276 11.2856 12 11.2856ZM21 12.2856V7.39993V7.28564H20.9966C20.8644 5.06615 16.8871 3.28564 12 3.28564C7.11304 3.28564 3.13582 5.06623 3.00341 7.28564H3V7.39993V12.2856V17.2856C3 19.5579 6.95053 21.2856 12 21.2856C17.0495 21.2856 21 19.5579 21 17.2856V12.2856ZM19 14.8401C17.3631 15.7323 14.8575 16.2856 12 16.2856C9.14248 16.2856 6.6369 15.7323 5.00004 14.8402L5.00021 17.2647C5.00021 17.2647 5.0017 17.2671 5.00368 17.2721C5.0283 17.3335 5.20421 17.773 6.41542 18.3087C7.71551 18.8837 9.67429 19.2856 12 19.2856C14.3257 19.2856 16.2845 18.8837 17.5846 18.3087C18.7958 17.773 18.9719 17.3338 18.9965 17.2724C18.9985 17.2674 19 17.265 19 17.265V14.8401Z" fill="#6F767E"/>
</g>
</svg>
