<svg width="20" height="20" viewBox="0 0 20 20" fill="none" xmlns="http://www.w3.org/2000/svg">
<g id="UI icon/more_horizontal/filled">
<path id="Ellipse 31" d="M6.66732 10.0002C6.66732 10.9206 5.92113 11.6668 5.00065 11.6668C4.08018 11.6668 3.33398 10.9206 3.33398 10.0002C3.33398 9.07969 4.08018 8.3335 5.00065 8.3335C5.92113 8.3335 6.66732 9.07969 6.66732 10.0002Z" fill="#2460AB"/>
<path id="Ellipse 32" d="M11.6673 10.0002C11.6673 10.9206 10.9211 11.6668 10.0007 11.6668C9.08018 11.6668 8.33398 10.9206 8.33398 10.0002C8.33398 9.07969 9.08018 8.3335 10.0007 8.3335C10.9211 8.3335 11.6673 9.07969 11.6673 10.0002Z" fill="#2460AB"/>
<path id="Ellipse 33" d="M16.6673 10.0002C16.6673 10.9206 15.9211 11.6668 15.0007 11.6668C14.0802 11.6668 13.334 10.9206 13.334 10.0002C13.334 9.07969 14.0802 8.3335 15.0007 8.3335C15.9211 8.3335 16.6673 9.07969 16.6673 10.0002Z" fill="#2460AB"/>
</g>
</svg>
