<svg width="24" height="25" viewBox="0 0 24 25" fill="none" xmlns="http://www.w3.org/2000/svg">
<g id="UI icon/home/light">
<path id="Union" fill-rule="evenodd" clip-rule="evenodd" d="M5 22.2857C3.34315 22.2857 2 20.9425 2 19.2857V11.6218C2 10.7713 2.36096 9.96082 2.99311 9.39189L9.9931 3.0919C11.134 2.06507 12.866 2.06507 14.0069 3.09189L21.0069 9.39189C21.639 9.96082 22 10.7713 22 11.6218V19.2857C22 20.9425 20.6569 22.2857 19 22.2857H5ZM20 11.6218V19.2857C20 19.838 19.5523 20.2857 19 20.2857H16V15.2857C16 13.6288 14.6569 12.2857 13 12.2857H11C9.34315 12.2857 8 13.6288 8 15.2857V20.2857H5C4.44772 20.2857 4 19.838 4 19.2857V11.6218C4 11.3383 4.12032 11.0681 4.33104 10.8785L11.331 4.57848C11.7113 4.23621 12.2887 4.23621 12.669 4.57848L19.669 10.8785C19.8797 11.0681 20 11.3383 20 11.6218ZM10 20.2857V15.2857C10 14.7334 10.4477 14.2857 11 14.2857H13C13.5523 14.2857 14 14.7334 14 15.2857V20.2857H10Z" fill="#6F767E"/>
</g>
</svg>
