<svg width="24" height="25" viewBox="0 0 24 25" fill="none" xmlns="http://www.w3.org/2000/svg">
<g id="UI icon/profile_circled/light">
<g id="Vector">
<path fill-rule="evenodd" clip-rule="evenodd" d="M12 12.2856C13.1046 12.2856 14 11.3902 14 10.2856C14 9.18108 13.1046 8.28564 12 8.28564C10.8954 8.28564 10 9.18108 10 10.2856C10 11.3902 10.8954 12.2856 12 12.2856ZM12 14.2856C14.2091 14.2856 16 12.4948 16 10.2856C16 8.07651 14.2091 6.28564 12 6.28564C9.79086 6.28564 8 8.07651 8 10.2856C8 12.4948 9.79086 14.2856 12 14.2856Z" fill="#6F767E"/>
<path fill-rule="evenodd" clip-rule="evenodd" d="M18.5588 19.8345C20.6672 18.0011 22 15.299 22 12.2856C22 6.7628 17.5228 2.28564 12 2.28564C6.47715 2.28564 2 6.7628 2 12.2856C2 15.299 3.33284 18.0011 5.44116 19.8345C7.19693 21.3613 9.49052 22.2856 12 22.2856C14.4162 22.2856 16.6323 21.4287 18.3609 20.0021C18.4276 19.9471 18.4936 19.8912 18.5588 19.8345ZM12.2579 20.2816C12.1723 20.2843 12.0863 20.2856 12 20.2856C11.9914 20.2856 11.9827 20.2856 11.9741 20.2856C11.8937 20.2853 11.8135 20.2839 11.7337 20.2813C10.3914 20.2374 9.13273 19.8628 8.03655 19.2364C8.95181 18.0488 10.3882 17.2856 12 17.2856C13.6118 17.2856 15.0482 18.0488 15.9634 19.2364C14.865 19.8641 13.6033 20.239 12.2579 20.2816ZM17.5624 18.0354C16.2832 16.3638 14.2675 15.2856 12 15.2856C9.73249 15.2856 7.7168 16.3638 6.43759 18.0354C4.93447 16.581 4 14.5424 4 12.2856C4 7.86737 7.58172 4.28564 12 4.28564C16.4183 4.28564 20 7.86737 20 12.2856C20 14.5424 19.0655 16.581 17.5624 18.0354Z" fill="#6F767E"/>
</g>
</g>
</svg>
