<svg width="24" height="25" viewBox="0 0 24 25" fill="none" xmlns="http://www.w3.org/2000/svg">
<g id="UI icon/search/light">
<path id="Union" fill-rule="evenodd" clip-rule="evenodd" d="M18 11.2856C18 15.1516 14.866 18.2856 11 18.2856C7.13401 18.2856 4 15.1516 4 11.2856C4 7.41965 7.13401 4.28564 11 4.28564C14.866 4.28564 18 7.41965 18 11.2856ZM18.0319 16.9033C19.2635 15.3637 20 13.4107 20 11.2856C20 6.31508 15.9706 2.28564 11 2.28564C6.02944 2.28564 2 6.31508 2 11.2856C2 16.2562 6.02944 20.2856 11 20.2856C13.125 20.2856 15.078 19.5492 16.6177 18.3175L19.2929 20.9928C19.6834 21.3833 20.3166 21.3833 20.7071 20.9928C21.0976 20.6022 21.0976 19.9691 20.7071 19.5785L18.0319 16.9033Z" fill="#6F767E"/>
</g>
</svg>
