<svg width="24" height="25" viewBox="0 0 24 25" fill="none" xmlns="http://www.w3.org/2000/svg">
<g id="UI icon/settings/light">
<path id="Oval (Stroke)" fill-rule="evenodd" clip-rule="evenodd" d="M12 14.2856C13.1046 14.2856 14 13.3902 14 12.2856C14 11.1811 13.1046 10.2856 12 10.2856C10.8954 10.2856 10 11.1811 10 12.2856C10 13.3902 10.8954 14.2856 12 14.2856ZM16 12.2856C16 14.4948 14.2091 16.2856 12 16.2856C9.79086 16.2856 8 14.4948 8 12.2856C8 10.0765 9.79086 8.28564 12 8.28564C14.2091 8.28564 16 10.0765 16 12.2856Z" fill="#6F767E"/>
<path id="Union (Stroke)" fill-rule="evenodd" clip-rule="evenodd" d="M11.3783 3.28564L10.9908 4.44831C10.6158 5.5732 9.79834 6.35589 8.96463 6.82012C8.90533 6.85313 8.84661 6.88709 8.7885 6.92198C7.96852 7.41424 6.88038 7.73175 5.71731 7.49375L4.51554 7.24783L4.9165 5.28843L6.11827 5.53435C6.68355 5.65003 7.2644 5.50422 7.7591 5.20724C7.83582 5.16118 7.91335 5.11634 7.99167 5.07273C8.49518 4.79237 8.91116 4.36258 9.0934 3.81585L9.48095 2.65319C9.75318 1.8365 10.5175 1.28564 11.3783 1.28564H12.6203C13.4811 1.28564 14.2454 1.8365 14.5176 2.65319L14.9052 3.81585C15.0874 4.36258 15.5034 4.79237 16.0069 5.07273C16.0852 5.11634 16.1628 5.16118 16.2395 5.20723C16.7342 5.50421 17.315 5.65002 17.8803 5.53435L19.0821 5.28843C19.9254 5.11585 20.7846 5.5023 21.2151 6.24783L21.836 7.3234C22.2665 8.06893 22.1716 9.00624 21.6004 9.65034L20.7854 10.5694C20.4035 11.0001 20.2385 11.5745 20.2476 12.15C20.249 12.2404 20.249 12.3308 20.2476 12.4212C20.2385 12.9968 20.4035 13.5711 20.7854 14.0018L21.6004 14.9209C22.1716 15.565 22.2665 16.5023 21.836 17.2478L21.2151 18.3234C20.7846 19.0689 19.9254 19.4554 19.0821 19.2828L17.8804 19.0369C17.3151 18.9212 16.7343 19.067 16.2396 19.364C16.1628 19.4101 16.0853 19.4549 16.0069 19.4986C15.5034 19.7789 15.0874 20.2087 14.9052 20.7554L14.5176 21.9181C14.2454 22.7348 13.4811 23.2856 12.6203 23.2856H11.3783C10.5175 23.2856 9.75318 22.7348 9.48095 21.9181L9.0934 20.7554C8.91116 20.2087 8.49518 19.7789 7.99167 19.4986C7.91333 19.4549 7.83578 19.4101 7.75904 19.364C7.26434 19.067 6.68348 18.9212 6.11819 19.0369L4.9165 19.2828C4.07311 19.4554 3.21392 19.0689 2.78349 18.3234L2.1625 17.2478C1.73207 16.5023 1.82699 15.565 2.39815 14.9209L3.89456 16.2478L4.51554 17.3234L5.71723 17.0775C6.88031 16.8395 7.96846 17.157 8.78845 17.6493C8.84658 17.6842 8.90532 17.7181 8.96463 17.7512C9.79834 18.2154 10.6158 18.9981 10.9908 20.123L11.3783 21.2856L12.6203 21.2856L13.0078 20.123C13.3828 18.9981 14.2003 18.2154 15.034 17.7512C15.0933 17.7182 15.152 17.6842 15.2101 17.6493C16.0301 17.157 17.1183 16.8395 18.2814 17.0775L19.483 17.3234L20.104 16.2478L19.289 15.3288C18.5043 14.4438 18.2327 13.3462 18.2478 12.3895C18.2489 12.3203 18.2489 12.251 18.2478 12.1817C18.2327 11.225 18.5043 10.1274 19.289 9.24246L20.104 8.3234L19.483 7.24783L18.2813 7.49374C17.1182 7.73175 16.0301 7.41423 15.2101 6.92198C15.152 6.88709 15.0933 6.85313 15.034 6.82012C14.2003 6.35589 13.3828 5.5732 13.0078 4.44831L12.6203 3.28564L11.3783 3.28564ZM2.39815 14.9209L3.89456 16.2478L4.70958 15.3287C5.49433 14.4437 5.76593 13.3462 5.75078 12.3895C5.74968 12.3203 5.74968 12.251 5.75078 12.1818C5.76593 11.225 5.49434 10.1275 4.70958 9.24251L3.89455 8.3234L4.51554 7.24783L4.9165 5.28843C4.07311 5.11584 3.21392 5.5023 2.78349 6.24783L2.1625 7.3234C1.73207 8.06892 1.82699 9.00624 2.39815 9.65034L3.21318 10.5695C3.59509 11.0001 3.76015 11.5745 3.75103 12.1501C3.7496 12.2404 3.74959 12.3308 3.75103 12.4212C3.76014 12.9967 3.59509 13.5711 3.21317 14.0018L2.39815 14.9209Z" fill="#6F767E"/>
</g>
</svg>
