<svg width="24" height="25" viewBox="0 0 24 25" fill="none" xmlns="http://www.w3.org/2000/svg">
<g id="UI icon/safe/light">
<path id="Vector 86 (Stroke)" fill-rule="evenodd" clip-rule="evenodd" d="M7 8.28564C7.55228 8.28564 8 8.73336 8 9.28564V13.2856C8 13.8379 7.55228 14.2856 7 14.2856C6.44772 14.2856 6 13.8379 6 13.2856V9.28564C6 8.73336 6.44772 8.28564 7 8.28564Z" fill="#6F767E"/>
<path id="Union" fill-rule="evenodd" clip-rule="evenodd" d="M20 19.1149C21.1652 18.7031 22 17.5919 22 16.2856V6.28564C22 4.62879 20.6569 3.28564 19 3.28564H5C3.34315 3.28564 2 4.62879 2 6.28564V16.2856C2 17.5919 2.83481 18.7031 4 19.1149V19.2856C4 20.3902 4.89543 21.2856 6 21.2856C7.10457 21.2856 8 20.3902 8 19.2856H16C16 20.3902 16.8954 21.2856 18 21.2856C19.1046 21.2856 20 20.3902 20 19.2856V19.1149ZM19 5.28564H5C4.44772 5.28564 4 5.73336 4 6.28564V16.2856C4 16.8379 4.44772 17.2856 5 17.2856H19C19.5523 17.2856 20 16.8379 20 16.2856V6.28564C20 5.73336 19.5523 5.28564 19 5.28564Z" fill="#6F767E"/>
<path id="Union_2" fill-rule="evenodd" clip-rule="evenodd" d="M10.293 14.9926C9.90243 14.6021 9.90243 13.9689 10.293 13.5784L11.2924 12.579C11.1049 12.1874 11 11.7488 11 11.2856C11 10.8225 11.1049 10.3839 11.2923 9.99231L10.2929 8.99287C9.90237 8.60235 9.90237 7.96918 10.2929 7.57866C10.6834 7.18814 11.3166 7.18814 11.7071 7.57866L12.7065 8.57806C13.0982 8.39061 13.5368 8.28564 14 8.28564C14.4631 8.28564 14.9017 8.39059 15.2934 8.578L16.2928 7.57854C16.6834 7.18801 17.3165 7.18801 17.707 7.57854C18.0976 7.96906 18.0976 8.60223 17.707 8.99275L16.7076 9.99219C16.895 10.3838 17 10.8225 17 11.2856C17 11.7488 16.895 12.1875 16.7076 12.5791L17.707 13.5785C18.0975 13.9691 18.0975 14.6022 17.707 14.9928C17.3165 15.3833 16.6833 15.3833 16.2928 14.9928L15.2933 13.9933C14.9017 14.1807 14.4631 14.2856 14 14.2856C13.5368 14.2856 13.0982 14.1807 12.7065 13.9933L11.7072 14.9926C11.3166 15.3832 10.6835 15.3832 10.293 14.9926ZM14 10.2856C13.4477 10.2856 13 10.7334 13 11.2856C13 11.8379 13.4477 12.2856 14 12.2856C14.5523 12.2856 15 11.8379 15 11.2856C15 10.7334 14.5523 10.2856 14 10.2856Z" fill="#6F767E"/>
</g>
</svg>
